<?xml version="1.0" standalone="no"?><!DOCTYPE svg PUBLIC "-//W3C//DTD SVG 1.1//EN" "http://www.w3.org/Graphics/SVG/1.1/DTD/svg11.dtd"><svg t="1737622342936" class="icon" viewBox="0 0 1024 1024" version="1.1" xmlns="http://www.w3.org/2000/svg" p-id="30818" xmlns:xlink="http://www.w3.org/1999/xlink" width="200" height="200"><path d="M330.147983 429.852628S104.901006 489.639593 104.901006 569.347311c0 168.56877 155.491401 184.318435 354.764812 184.318435 0 0 141.973453-12.443265 44.836106 84.702317l-144.460459 144.460459H947.888971V529.481099s9.968612-323.804882-269.016635-488.194329c0 0-49.826588-4.974012-49.826588 54.796482v84.706435s-298.897765-19.319589-298.897765 249.062941z" fill="#DBC2A0" p-id="30819"></path><path d="M325.42926 409.812466c-2.655826 0.625869-65.687427 15.57261-129.834888 40.730899C101.314611 487.51905 80.195648 537.362108 80.195648 569.347311c0 63.451593 19.307237 144.209288 106.10951 174.790402 75.124874 26.467673 175.778617 30.111713 273.364778 30.111713 0.601164 0 1.202327-0.028823 1.803491-0.082351 26.430615-2.252305 53.561215 2.985231 56.38586 8.683933l-0.004117-0.01647c0.03294 0.098821 1.857019 11.195644-27.904701 40.9656L345.49001 968.260596a20.58368 20.58368 0 0 0 14.555573 35.143371H947.888971a20.587798 20.587798 0 0 0 20.587797-20.587798v-453.343305l-0.008235 0.634104c0.098821-3.450515 2.219365-85.674061-30.852873-189.33774-30.634643-96.025606-98.578493-229.010427-248.292958-317.22914a20.435448 20.435448 0 0 0-8.403939-2.746412c-2.931702-0.292347-29.234673-2.318186-50.011879 16.490826-14.89733 13.48089-22.448935 33.265764-22.448934 58.786397v84.706435a20.591915 20.591915 0 0 1 21.913652-20.546622c-6.184574-0.399403-152.530876-8.774519-246.176533 79.01185-49.521889 46.425484-74.639002 110.560591-74.639001 190.605949a20.596033 20.596033 0 0 1 15.873192-20.036045z m324.208403-229.031014V96.075017c0-13.402656 3.001701-22.910101 8.906281-28.258811 7.25514-6.567507 18.174908-6.061048 18.277847-6.052813a20.476624 20.476624 0 0 1-8.403939-2.746412c265.413771 156.401382 258.978025 466.717139 258.887439 469.830014l-0.008236 0.629986v453.355659c0-11.372699 9.210981-20.587798 20.587798-20.587798H360.041465a20.575445 20.575445 0 0 1 19.019008 12.710906 20.579563 20.579563 0 0 1-4.459317 22.432465l144.456341-144.460459c12.97443-12.970313 52.445356-52.449473 36.115115-87.469318-16.976698-36.399226-78.768914-33.924573-97.30205-32.298137a18.734896 18.734896 0 0 1 1.799374-0.086468c-229.908055 0-330.063573-26.79296-330.063573-163.730638 0-43.201435 109.201797-96.824413 205.264461-119.45452a20.591915 20.591915 0 0 0 15.869074-20.040162c0-68.116787 20.678384-122.089758 61.466929-160.411885 80.444761-75.590158 214.199565-68.199139 215.550124-68.11267a20.58368 20.58368 0 0 0 21.880712-20.542504z" fill="#6E6E96" p-id="30820"></path></svg>
